<svg width="1000" height="1000" viewBox="0 0 1000 1000" fill="none" xmlns="http://www.w3.org/2000/svg">
<path d="M0 250C0 111.929 111.929 0 250 0H750C888.071 0 1000 111.929 1000 250V750C1000 888.071 888.071 1000 750 1000H250C111.929 1000 0 888.071 0 750V250Z" fill="#408EEE"/>
<path d="M640.643 211.195L622.825 229.013L712.747 318.934C720.952 327.14 721.929 340.505 714.269 349.218C705.873 358.773 691.31 359.127 682.463 350.281L592.015 259.832L550.233 301.614L601.666 353.048C610.177 361.559 610.177 375.356 601.666 383.867C593.154 392.379 579.358 392.379 570.846 383.867L519.413 332.434L477.631 374.216L567.543 464.129C575.748 472.334 576.725 485.7 569.065 494.412C560.669 503.967 546.106 504.322 537.26 495.475L446.811 405.027L405.029 446.809L455.926 497.706C464.131 505.911 465.108 519.277 457.448 527.989C449.052 537.544 434.489 537.899 425.642 529.052L374.209 477.619L332.427 519.401L422.875 609.85C431.387 618.361 431.387 632.158 422.875 640.669C414.364 649.181 400.567 649.181 392.056 640.669L301.607 550.221L259.825 592.003L310.722 642.9C318.927 651.105 319.904 664.471 312.244 673.184C303.848 682.739 289.285 683.093 280.439 674.246L229.005 622.813L211.188 640.631C196.271 655.548 196.271 679.742 211.188 694.668L305.332 788.812C320.248 803.729 344.443 803.729 359.369 788.812L788.805 359.376C803.722 344.459 803.722 320.265 788.805 305.339L694.661 211.195C679.754 196.268 655.569 196.268 640.643 211.195Z" fill="white"/>
<path d="M255.018 342.739C265.167 370.619 275.287 398.48 285.647 426.303C288.414 433.704 293.392 441.354 299.711 447.874L332.972 481.097L367.287 446.783L481.049 333.021L447.653 299.664C441.478 293.536 433.809 288.529 426.054 285.685C397.293 274.981 368.474 264.536 339.694 254.071C317.778 246.163 295.882 238.226 274.052 230.183C261.175 225.482 247.589 222.715 235.372 234.463C228.335 241.174 225.941 248.365 225.97 255.632C225.97 261.865 227.78 268.203 230.068 274.378C238.484 297.127 246.765 319.942 255.018 342.739ZM315.337 287.323L385.028 318.985L318.898 384.846L286.46 316.4L315.337 287.323Z" fill="white"/>
<path d="M752.623 604.338L667.076 518.878L519 666.945L606.251 754.109L612.943 760.801C630.34 778.198 658.545 778.198 675.942 760.801L761.019 675.724C778.416 658.328 778.416 630.122 761.019 612.725L752.623 604.338ZM712.564 662.512L662.442 712.671C653.241 721.882 638.315 721.882 629.114 712.681L593.258 676.825L676.852 593.5L712.564 629.212C721.755 638.394 721.755 653.311 712.564 662.512Z" fill="white"/>
</svg>
