<svg width="1000" height="1000" viewBox="0 0 1000 1000" fill="none" xmlns="http://www.w3.org/2000/svg">
<path d="M0 250C0 111.929 111.929 0 250 0H750C888.071 0 1000 111.929 1000 250V750C1000 888.071 888.071 1000 750 1000H250C111.929 1000 0 888.071 0 750V250Z" fill="#58BEC0"/>
<path d="M570.794 693.178C576.808 693.476 582.481 696.058 586.659 700.398C590.838 704.738 593.205 710.509 593.281 716.537V740.741C593.307 749.873 590.031 758.705 584.058 765.606C578.084 772.507 569.818 777.011 560.786 778.284L554.937 799.95C553.331 805.645 549.935 810.669 545.252 814.279C540.569 817.889 534.849 819.892 528.94 819.991H470.449C464.475 820.151 458.629 818.245 453.894 814.595C449.159 810.945 445.825 805.773 444.453 799.95L438.604 778.284C429.572 777.011 421.305 772.507 415.332 765.606C409.359 758.705 406.082 749.873 406.109 740.741V716.537C406.1 713.467 406.698 710.425 407.867 707.587C409.037 704.75 410.755 702.171 412.923 700C415.091 697.83 417.667 696.109 420.501 694.939C423.336 693.768 426.374 693.169 429.44 693.178H570.794ZM500.02 339.807C489.827 339.807 479.862 342.834 471.387 348.503C462.912 354.173 456.306 362.231 452.405 371.659C448.505 381.087 447.484 391.462 449.473 401.47C451.461 411.479 456.37 420.673 463.577 427.889C470.785 435.105 479.968 440.019 489.965 442.01C499.962 444.001 510.325 442.979 519.742 439.074C529.159 435.168 537.208 428.555 542.871 420.07C548.534 411.585 551.557 401.609 551.557 391.404C551.557 377.72 546.127 364.596 536.462 354.92C526.797 345.243 513.688 339.807 500.02 339.807V339.807ZM558.121 663.573H442.048C429.034 663.697 416.415 659.1 406.523 650.632C396.631 642.164 390.135 630.397 388.236 617.507C383.466 587.051 369.468 558.797 348.137 536.565C319.527 506.979 300.223 469.635 292.62 429.165C285.017 388.695 289.449 346.881 305.367 308.91C321.286 270.939 347.989 238.483 382.165 215.568C416.34 192.653 456.484 180.288 497.615 180.007H499.24C540.649 179.679 581.232 191.609 615.891 214.299C650.55 236.989 677.739 269.426 694.043 307.536C710.347 345.646 715.039 387.73 707.53 428.501C700.021 469.272 680.645 506.913 651.837 536.696C630.37 558.824 616.37 587.131 611.803 617.637C609.713 630.436 603.161 642.08 593.31 650.502C583.458 658.923 570.945 663.577 557.991 663.638L558.121 663.573ZM586.587 508.717C588.842 508.723 591.076 508.283 593.162 507.424C595.247 506.564 597.143 505.301 598.74 503.707L612.128 490.304C614.999 487.448 616.77 483.668 617.127 479.632C617.484 475.595 616.404 471.563 614.078 468.247L601.08 449.638C606.052 440.93 609.875 431.613 612.453 421.92L634.81 418.016C638.792 417.326 642.404 415.251 645.008 412.156C647.612 409.061 649.04 405.146 649.043 401.099V381.97C649.04 377.923 647.612 374.008 645.008 370.913C642.404 367.818 638.792 365.743 634.81 365.053L612.453 361.149C609.826 351.401 605.937 342.039 600.885 333.301L613.883 314.692C616.209 311.376 617.289 307.343 616.932 303.307C616.575 299.271 614.804 295.491 611.933 292.635L598.545 279.231C595.685 276.367 591.905 274.606 587.873 274.261C583.842 273.916 579.818 275.008 576.513 277.345L557.926 290.358C549.218 285.306 539.889 281.412 530.175 278.776L526.016 256.328C525.327 252.341 523.254 248.725 520.163 246.119C517.071 243.512 513.16 242.081 509.118 242.079H490.401C486.359 242.081 482.448 243.512 479.357 246.119C476.265 248.725 474.193 252.341 473.504 256.328L469.539 278.776C459.74 281.375 450.323 285.246 441.528 290.293L422.941 277.279C419.636 274.943 415.612 273.85 411.581 274.196C407.55 274.541 403.77 276.302 400.909 279.166L387.521 292.57C384.66 295.434 382.901 299.218 382.556 303.254C382.212 307.29 383.303 311.318 385.637 314.627L398.635 333.236C393.584 341.975 389.695 351.336 387.066 361.084L364.71 364.988C360.728 365.693 357.123 367.784 354.531 370.891C351.939 373.998 350.526 377.922 350.542 381.97V400.969C350.544 405.015 351.973 408.931 354.577 412.026C357.18 415.121 360.792 417.196 364.775 417.886L387.131 421.79C389.761 431.537 393.65 440.899 398.7 449.638L385.702 468.247C383.368 471.555 382.277 475.584 382.621 479.62C382.966 483.656 384.725 487.44 387.586 490.304L400.974 503.707C403.835 506.572 407.615 508.333 411.646 508.678C415.678 509.023 419.701 507.931 423.006 505.594L441.593 492.581C450.322 497.637 459.673 501.53 469.409 504.163L473.309 526.545C473.998 530.533 476.07 534.148 479.162 536.755C482.253 539.362 486.164 540.793 490.206 540.795H509.183C513.214 540.777 517.11 539.34 520.188 536.734C523.265 534.129 525.329 530.522 526.016 526.545L529.915 504.163C539.653 501.535 549.004 497.641 557.731 492.581L576.318 505.594C579.274 507.708 582.825 508.825 586.457 508.782L586.587 508.717Z" fill="white"/>
</svg>
