<svg width="1000" height="1000" viewBox="0 0 1000 1000" fill="none" xmlns="http://www.w3.org/2000/svg">
<path d="M0 250C0 111.929 111.929 0 250 0H750C888.071 0 1000 111.929 1000 250V750C1000 888.071 888.071 1000 750 1000H250C111.929 1000 0 888.071 0 750V250Z" fill="#6E4EE3"/>
<path d="M397.325 363.813C397.325 352.973 393.116 342.785 385.412 335.061C370.51 320.243 342.873 320.2 327.992 335.103L191.892 471.223C184.336 478.78 180 489.241 180 499.933C180 510.626 184.336 521.087 191.892 528.643L328.034 664.806C335.716 672.425 345.904 676.656 356.702 676.656C367.5 676.656 377.687 672.446 385.454 664.743C393.095 657.081 397.304 646.873 397.304 636.054C397.304 625.235 393.095 615.026 385.412 607.343L278.023 499.954L385.433 392.565C393.095 384.882 397.325 374.695 397.325 363.813Z" fill="white"/>
<path d="M808.129 471.226L672.008 335.105C657.169 320.224 629.533 320.203 614.567 335.105C606.905 342.767 602.696 352.975 602.696 363.815C602.696 374.719 606.927 384.927 614.567 392.526L721.977 499.936L614.567 607.325C606.905 614.987 602.696 625.195 602.696 636.035C602.696 646.875 606.905 657.084 614.609 664.787C622.292 672.428 632.5 676.638 643.298 676.638C654.096 676.638 664.305 672.428 671.987 664.766L808.108 528.646C815.664 521.09 820 510.628 820 499.936C820 489.243 815.685 478.782 808.129 471.226Z" fill="white"/>
<path d="M567.818 237.432C544.454 231.097 518.586 246.483 512.587 269.742L399.115 707.381C392.863 731.439 407.387 756.129 431.466 762.444C435.15 763.391 438.938 763.875 442.811 763.875C463.418 763.875 481.372 749.962 486.508 730.05L599.98 292.411C603.032 280.729 601.306 268.584 595.202 258.228C589.098 247.809 579.31 240.421 567.818 237.432Z" fill="white"/>
</svg>
