<svg width="1000" height="1000" viewBox="0 0 1000 1000" fill="none" xmlns="http://www.w3.org/2000/svg">
<path d="M0 250C0 111.929 111.929 0 250 0H750C888.071 0 1000 111.929 1000 250V750C1000 888.071 888.071 1000 750 1000H250C111.929 1000 0 888.071 0 750V250Z" fill="#6DDEA5"/>
<path d="M646.929 580.485C680.786 530.118 694.677 468.95 685.897 408.9C677.117 348.849 646.295 294.219 599.435 255.654C552.576 217.088 493.036 197.35 432.419 200.286C371.801 203.222 314.448 228.621 271.534 271.534C228.621 314.448 203.222 371.801 200.286 432.419C197.35 493.036 217.088 552.576 255.654 599.435C294.219 646.295 348.849 677.117 408.9 685.897C468.95 694.677 530.118 680.786 580.485 646.929L721.013 787.394C729.917 795.691 741.693 800.207 753.861 799.993C766.029 799.778 777.638 794.849 786.243 786.243C794.849 777.638 799.778 766.029 799.993 753.861C800.207 741.693 795.691 729.917 787.394 721.013L646.929 580.485ZM444.215 594.513C414.489 594.513 385.431 585.698 360.715 569.183C335.998 552.668 316.734 529.195 305.359 501.732C293.983 474.268 291.007 444.049 296.806 414.894C302.605 385.739 316.92 358.958 337.939 337.939C358.958 316.92 385.739 302.605 414.894 296.806C444.049 291.007 474.268 293.983 501.732 305.359C529.195 316.734 552.668 335.998 569.183 360.715C585.698 385.431 594.513 414.489 594.513 444.215C594.513 484.077 578.678 522.305 550.492 550.492C522.305 578.678 484.077 594.513 444.215 594.513Z" fill="white"/>
</svg>
