<svg width="1000" height="1000" viewBox="0 0 1000 1000" fill="none" xmlns="http://www.w3.org/2000/svg">
<path d="M0 250C0 111.929 111.929 0 250 0H750C888.071 0 1000 111.929 1000 250V750C1000 888.071 888.071 1000 750 1000H250C111.929 1000 0 888.071 0 750V250Z" fill="#E94538"/>
<path d="M658.177 242H341.823C269.015 242 210 301.008 210 373.808V604.661C210 677.462 269.015 736.477 341.823 736.477H417.916L500 878.668L582.084 736.484H658.177C730.985 736.484 790 677.469 790 604.669V373.808C790 301.008 730.985 242 658.177 242ZM402.986 603.165C402.986 623.477 386.546 639.91 366.234 639.91C345.937 639.91 329.482 623.477 329.482 603.165V491.743C329.482 471.423 345.937 455.012 366.234 455.012C386.546 455.012 402.986 471.431 402.986 491.743V603.165ZM670.526 583.77C670.526 614.781 645.367 639.903 614.349 639.903H472.098C441.058 639.903 415.936 614.773 415.936 583.77V511.145C415.936 483.948 435.266 461.282 460.923 456.09C485.444 420.027 496.979 388.159 496.979 388.159C496.979 388.159 500.301 374.102 505.962 358.006C506.563 355.549 507.443 353.196 508.557 350.996C513.925 340.392 524.917 333.111 537.618 333.111C552.731 333.111 565.424 343.377 569.09 357.346C569.486 358.871 569.787 360.404 569.97 362.002C575.976 398.725 563.239 434.26 553.369 455.005H614.349C645.367 455.005 670.526 480.127 670.526 511.138V583.77Z" fill="white"/>
</svg>
