<svg width="1000" height="1000" viewBox="0 0 1000 1000" fill="none" xmlns="http://www.w3.org/2000/svg">
<path d="M0 250C0 111.929 111.929 0 250 0H750C888.071 0 1000 111.929 1000 250V750C1000 888.071 888.071 1000 750 1000H250C111.929 1000 0 888.071 0 750V250Z" fill="#2F5FEE"/>
<path d="M741.429 228H256.857C242 228 230 240 230 255.429V629.714C230 644.571 242 657.143 257.429 657.143H445.429V706.857H422C394 706.857 371.143 729.714 371.143 758.286C371.143 765.714 377.429 772 384.857 772H615.143C622.571 772 628.857 765.714 628.857 758.286C628.857 730.286 606 706.857 578 706.857H554.571V657.143H742.571C757.429 657.143 770 645.143 770 629.714V255.429C768.286 240 756.286 228 741.429 228ZM499.143 627.429C488.857 627.429 480.286 618.857 480.286 608.571C480.286 598.286 488.857 589.714 499.143 589.714C509.429 589.714 518 598.286 518 608.571C518 618.857 509.429 627.429 499.143 627.429ZM713.429 561.143H284.857V282.857H713.429V561.143Z" fill="white"/>
<path d="M475.143 517.716H663.143C666 517.716 668.286 515.43 668.286 512.573V486.859C668.286 484.002 666 481.716 663.143 481.716H475.143C472.286 481.716 470 484.002 470 486.859V512.573C470 515.43 472.286 517.716 475.143 517.716Z" fill="white"/>
<path d="M475.143 440.574H663.143C666 440.574 668.286 438.288 668.286 435.431V409.717C668.286 406.86 666 404.574 663.143 404.574H475.143C472.286 404.574 470 406.86 470 409.717V435.431C470 438.288 472.286 440.574 475.143 440.574Z" fill="white"/>
<path d="M475.143 364H663.143C666 364 668.286 361.714 668.286 358.857V333.143C668.286 330.286 666 328 663.143 328H475.143C472.286 328 470 330.286 470 333.143V358.857C470 361.714 472.286 364 475.143 364Z" fill="white"/>
<path d="M335.715 517.714H432.858C435.715 517.714 438.001 515.429 438.001 512.571V333.143C438.001 330.286 435.715 328 432.858 328H335.715C332.858 328 330.572 330.286 330.572 333.143V512.571C330.572 515.429 332.858 517.714 335.715 517.714Z" fill="white"/>
</svg>
